<svg width="17" height="8" viewBox="0 0 17 8" fill="none" xmlns="http://www.w3.org/2000/svg">
<path d="M8.62947 7.79297C8.35884 7.79345 8.09655 7.70868 7.88816 7.55339L0.938366 2.34505C0.701822 2.16824 0.553068 1.91417 0.524829 1.63872C0.49659 1.36328 0.591179 1.08903 0.787787 0.876304C0.984395 0.663578 1.26692 0.529803 1.5732 0.504408C1.87949 0.479012 2.18445 0.564076 2.42099 0.740887L8.62947 5.40755L14.838 0.907555C14.9564 0.821028 15.0928 0.756411 15.2391 0.71742C15.3854 0.678429 15.5389 0.665831 15.6907 0.680351C15.8424 0.694871 15.9895 0.736222 16.1235 0.802028C16.2574 0.867834 16.3756 0.956797 16.4712 1.0638C16.5772 1.17091 16.6576 1.29656 16.7071 1.43289C16.7567 1.56922 16.7744 1.71328 16.7592 1.85605C16.744 1.99883 16.6961 2.13724 16.6187 2.26261C16.5412 2.38798 16.4358 2.49761 16.309 2.58464L9.3592 7.61589C9.14482 7.74663 8.88789 7.80898 8.62947 7.79297Z" fill="#231F20"/>
</svg>
