<svg width="9" height="16" viewBox="0 0 9 16" fill="none" xmlns="http://www.w3.org/2000/svg">
<path d="M0.705534 14.9012C0.4992 14.7055 0.379028 14.4359 0.371444 14.1516C0.363861 13.8674 0.469486 13.5918 0.665094 13.3854L6.18783 7.55986L0.362337 2.03712C0.161668 1.84014 0.0463918 1.57224 0.0413355 1.29109C0.0362791 1.00995 0.141847 0.738072 0.335303 0.534011C0.528759 0.329951 0.794623 0.210035 1.07563 0.200093C1.35664 0.190152 1.63032 0.29098 1.83771 0.48086L8.44134 6.74129C8.64767 6.93696 8.76784 7.20657 8.77542 7.49082C8.78301 7.77508 8.67738 8.05071 8.48178 8.25711L2.22135 14.8607C2.02568 15.0671 1.75607 15.1872 1.47181 15.1948C1.18756 15.2024 0.911925 15.0968 0.705534 14.9012Z" fill="#0D0D0D"/>
</svg>
